<?xml version="1.0" encoding="UTF-8" standalone="no"?>
<svg
   xmlns:dc="http://purl.org/dc/elements/1.1/"
   xmlns:cc="http://creativecommons.org/ns#"
   xmlns:rdf="http://www.w3.org/1999/02/22-rdf-syntax-ns#"
   xmlns:svg="http://www.w3.org/2000/svg"
   xmlns="http://www.w3.org/2000/svg"
   id="svg1216"
   version="1.1"
   viewBox="0 0 60.726456 39.138592"
   height="39.138592mm"
   width="60.726456mm">
  <defs
     id="defs1210" />
  <metadata
     id="metadata1213">
    <rdf:RDF>
      <cc:Work
         rdf:about="">
        <dc:format>image/svg+xml</dc:format>
        <dc:type
           rdf:resource="http://purl.org/dc/dcmitype/StillImage" />
        <dc:title></dc:title>
      </cc:Work>
    </rdf:RDF>
  </metadata>
  <g
     transform="translate(238.25081,247.11046)"
     id="layer1">
    <path
       d="m -185.26609,-220.49698 c 0.60882,0 1.0905,-0.48133 1.0905,-1.09051 v -7.8728 c 0,-0.60882 -0.48168,-1.09051 -1.0905,-1.09051 h -0.24067 c -0.43882,0 -0.75043,0.18412 -0.97702,0.55231 l -2.64791,4.30474 -2.63388,-4.29035 c -0.19815,-0.32603 -0.52383,-0.5667 -0.99144,-0.5667 h -0.24063 c -0.60886,0 -1.09016,0.48169 -1.09016,1.09051 v 7.90127 c 0,0.59478 0.46726,1.06204 1.06204,1.06204 0.59479,0 1.07612,-0.46726 1.07612,-1.06204 v -4.92767 l 1.88309,2.90265 c 0.22659,0.34005 0.51008,0.55228 0.90639,0.55228 0.39663,0 0.6798,-0.21223 0.90607,-0.55228 l 1.91188,-2.94516 v 4.94171 c 0,0.59478 0.48133,1.09051 1.07612,1.09051"
       style="fill:#28231d;fill-opacity:1;fill-rule:nonzero;stroke:none;stroke-width:0.352778"
       id="path140" />
    <path
       d="m -210.22512,-221.35663 c -0.0106,3.097 -0.80631,5.92423 -2.99074,8.23686 -3.94791,4.17929 -10.41789,4.34965 -14.51078,0.24307 -1.41104,-1.41549 -2.5557,-3.11655 -3.70378,-4.76928 -1.37332,-1.97668 -2.62907,-4.03531 -3.91428,-6.07197 -0.32843,-0.52074 -0.58896,-1.08673 -0.85739,-1.64313 -0.37264,-0.7734 -0.30409,-1.48269 0.47272,-1.95781 0.7782,-0.47583 1.43369,-0.18239 1.97429,0.46347 1.5053,1.79808 3.02708,3.58313 4.5012,5.40657 0.50976,0.63077 1.02468,0.92251 1.89099,0.88618 2.70104,-0.11314 4.4268,1.39594 5.62116,3.65922 0.12101,0.2297 0.33116,0.70792 0.33391,0.71342 0.16933,0.45971 0.44841,0.79464 0.91567,0.79464 0.51318,0 0.92904,-0.41582 0.92904,-0.92904 0,-0.0843 -0.0147,-0.16419 -0.0357,-0.24201 -0.0189,-0.11074 -0.0463,-0.22352 -0.0874,-0.33599 -0.12308,-0.33492 -0.26158,-0.66812 -0.42954,-0.98283 -1.45253,-2.72059 -3.6534,-4.35586 -6.89028,-4.60097 v -14.07502 c 0,-1.10765 -0.0189,-2.21562 0.005,-3.3226 0.023,-1.05791 0.55298,-1.69658 1.35964,-1.7079 0.84673,-0.0117 1.40003,0.65136 1.40381,1.74184 0.0103,3.22488 0.004,6.44976 0.008,9.675 3.2e-4,0.20979 -0.0374,0.45423 -0.008,0.65239 -7e-4,0.0113 -0.004,0.0219 -0.004,0.0329 0,0.52934 0.42884,0.95818 0.95783,0.95818 0.52896,0 0.95783,-0.42884 0.95783,-0.95818 0,-0.013 -0.003,-0.0257 -0.004,-0.0387 0.025,-0.1978 -0.0175,-0.44086 -0.0171,-0.64928 0.004,-4.3651 0.005,-8.7302 0.007,-13.09494 3.5e-4,-0.22796 -0.0202,-0.45935 0.0113,-0.68322 0.1162,-0.82208 0.58003,-1.32052 1.4292,-1.30306 0.85158,0.0179 1.31781,0.52589 1.34522,1.36684 0.0329,1.00855 0.012,2.01919 0.0123,3.02912 7.1e-4,3.55054 7.1e-4,7.10146 0.001,10.65202 0,0.16249 -0.0175,0.61638 -0.0175,0.68358 0,0.23104 0.0854,0.44016 0.22147,0.60576 0.1409,0.22556 0.35585,0.36166 0.64072,0.34247 0.0319,0.003 0.0631,0.01 0.0956,0.01 0.52931,0 0.95818,-0.42887 0.95818,-0.95783 0,-0.0926 -0.009,-2.71547 -0.009,-3.94208 0,-2.70344 -0.005,-5.40724 -7e-4,-8.11103 0.002,-1.17725 0.52828,-1.84471 1.41788,-1.82587 0.83545,0.0182 1.33766,0.67571 1.33974,1.80837 0.008,4.10422 0.006,6.14398 0.009,10.24851 0,0.18786 -0.007,1.30853 -7e-4,1.82517 -0.002,0.0243 -7.1e-4,0.14534 0.004,0.18136 7.1e-4,0.022 0.0254,0.20225 0.0483,0.21255 0.13268,0.37024 0.48306,0.63659 0.89888,0.63659 0.52896,0 0.95783,-0.42887 0.95783,-0.95783 0,-0.0782 -0.0106,-2.03976 -0.0106,-3.28041 3.5e-4,-1.20533 -0.004,-2.4107 0.001,-3.61604 0.004,-0.84949 0.43776,-1.36476 1.27734,-1.43845 0.89404,-0.0785 1.3099,0.53823 1.44565,1.28728 0.10869,0.59994 0.036,1.23346 0.0363,1.85223 0.003,4.43022 0.0158,8.86047 7.1e-4,13.29034 m -2.39183,-18.20083 c -0.11314,0.0411 -0.76211,0.51968 -0.69046,0.51968 -0.0778,-1.53205 0.15427,-3.5886 -0.48715,-4.85155 -0.80148,-1.5773 -3.02091,-1.76653 -4.40517,-0.73465 -0.27185,-2.15562 -1.60715,-2.68288 -3.44463,-2.42782 -2.38637,0.3315 -2.45184,1.94959 -2.5012,3.81282 -0.14605,0 -0.41243,0.0137 -0.50119,-0.002 -2.67638,-0.46997 -4.26261,0.84953 -4.27256,3.60987 -0.0171,4.72267 -0.004,9.44566 -0.004,14.16865 v 1.04592 c -0.002,0.18958 -0.035,0.35105 -0.21633,0.0555 -1.13471,-1.33766 -2.24271,-2.69899 -3.41171,-4.00579 -1.07474,-1.20124 -2.7535,-1.42645 -4.09116,-0.6308 -1.3473,0.80151 -1.93076,2.3603 -1.42748,3.89305 0.14121,0.42989 0.31915,0.86254 0.56084,1.24237 2.1844,3.42988 4.36817,6.86044 6.59853,10.26051 0.47756,0.72778 1.09806,1.37848 1.7295,1.9849 3.36853,3.23519 7.36716,4.41996 11.86423,3.13609 4.4933,-1.2828 7.26154,-4.41685 8.46176,-8.90672 0.24956,-0.93317 0.37264,-1.92698 0.37913,-2.89405 0.0346,-5.30888 0.0254,-10.61808 0.009,-15.92728 -0.007,-2.41378 -1.84266,-4.18341 -4.14979,-3.34864"
       style="fill:#28231d;fill-opacity:1;fill-rule:nonzero;stroke:none;stroke-width:0.352778"
       id="path142" />
    <path
       d="m -182.39374,-236.5881 h -23.28277 v 3.6e-4 c -0.58141,0.003 -1.05177,0.47445 -1.05177,1.05653 0,0.58177 0.47036,1.0535 1.05177,1.05622 v 0.0113 h 23.28277 c 1.51356,0 2.74493,1.23141 2.74493,2.74493 v 12.40589 c 0,1.51388 -1.23137,2.74528 -2.74493,2.74528 h -23.28277 v 0.0113 c -0.58141,0.003 -1.05177,0.47449 -1.05177,1.05622 0,0.58212 0.47036,1.0535 1.05177,1.05621 v 7.1e-4 h 23.28277 c 2.68495,0 4.86939,-2.18444 4.86939,-4.86971 v -12.40589 c 0,-2.68492 -2.18444,-4.86936 -4.86939,-4.86936"
       style="fill:#28231d;fill-opacity:1;fill-rule:nonzero;stroke:none;stroke-width:0.352778"
       id="path144" />
    <path
       d="m -201.32348,-224.75 c -1.7453,1.10282 -2.62495,2.20602 -2.62495,3.19743 0,0.48888 0.33493,1.03326 1.14466,1.03326 h 5.23621 c 0.64209,0 1.03325,-0.25129 1.03325,-0.87966 0,-0.6284 -0.39116,-0.87968 -0.92149,-0.87968 h -4.18888 c 0.18168,-0.53069 1.14501,-1.10282 2.72298,-1.99655 1.47959,-0.83785 2.33151,-1.56393 2.33151,-3.42099 0,-1.28453 -1.32637,-2.75075 -3.56051,-2.75075 -2.05243,0 -3.72781,1.29858 -3.72781,3.00203 0,0.69801 0.44637,0.93557 1.01921,0.93557 0.55845,0 0.74013,-0.26536 0.87965,-0.78197 0.30717,-1.11689 0.90745,-1.48029 1.80118,-1.48029 0.76789,0 1.4659,0.50292 1.4659,1.41034 0,1.13097 -0.67021,1.38225 -2.61091,2.61126"
       style="fill:#28231d;fill-opacity:1;fill-rule:nonzero;stroke:none;stroke-width:0.352778"
       id="path146" />
  </g>
</svg>
