<?xml version="1.0" encoding="UTF-8" standalone="no"?>
<svg
   xmlns:dc="http://purl.org/dc/elements/1.1/"
   xmlns:cc="http://creativecommons.org/ns#"
   xmlns:rdf="http://www.w3.org/1999/02/22-rdf-syntax-ns#"
   xmlns:svg="http://www.w3.org/2000/svg"
   xmlns="http://www.w3.org/2000/svg"
   id="svg1319"
   version="1.1"
   viewBox="0 0 44.921795 24.581055"
   height="24.581055mm"
   width="44.921795mm">
  <defs
     id="defs1313" />
  <metadata
     id="metadata1316">
    <rdf:RDF>
      <cc:Work
         rdf:about="">
        <dc:format>image/svg+xml</dc:format>
        <dc:type
           rdf:resource="http://purl.org/dc/dcmitype/StillImage" />
        <dc:title></dc:title>
      </cc:Work>
    </rdf:RDF>
  </metadata>
  <g
     transform="translate(-83.372431,-135.87614)"
     id="layer1">
    <g
       id="g1298"
       transform="matrix(0,-0.35277777,-0.35277777,0,170.8783,289.88202)">
      <path
         d="m 388.5484,137.7672 c 8.76953,0 17.53907,0 26.3086,0 -1.67133,-8.75123 -13.09124,-13.38918 -20.39033,-8.21911 -2.91578,1.85242 -5.18537,4.81399 -5.91827,8.21911 z m -7.8994,6.6721 c -6.08984,1.39533 -4.00355,10.22986 -5.53315,15.03546 -1.62582,13.57852 -2.12327,27.2935 -0.8265,40.92511 0.5469,7.56247 1.35013,15.18751 3.27678,22.52133 5.2238,3.18382 12.46536,0.56517 18.47253,1.41724 9.39274,-0.11442 18.82508,0.22845 28.19308,-0.17283 3.90094,-3.05049 2.64207,-9.39045 3.94034,-13.89401 1.18646,-12.96407 2.5682,-26.00668 1.19345,-39.0176 -0.62285,-8.47041 -1.24865,-17.06178 -3.43634,-25.27895 -3.36975,-3.04561 -8.7029,-0.8888 -12.92976,-1.5371 -10.78348,3.8e-4 -21.56695,5.9e-4 -32.35043,0.001 m 7.915,86.5988 c 1.78403,8.83949 13.34111,13.39306 20.64735,8.03164 2.55322,-1.23943 8.89353,-9.23818 2.77591,-8.03164 -7.80776,0 -15.61551,0 -23.42326,0 z m 24.0152,-107.1089 c 5.6452,2.59647 7.5574,9.96347 10.11734,13.84619 5.50715,-0.45839 10.17723,4.33076 10.51569,9.67279 2.40537,13.40413 3.39006,27.07767 3.33791,40.6888 -0.54817,12.06888 -1.31729,24.23743 -4.02782,36.03851 -0.90611,5.60121 -7.7955,6.19587 -10.94144,7.95188 -2.21206,11.18985 -14.90171,18.58502 -25.72756,15.01619 -7.27771,-2.14981 -12.96202,-8.65779 -14.19082,-16.14136 -5.7002,0.78266 -11.10364,-3.82645 -11.36507,-9.55172 -2.4461,-13.29697 -3.3832,-26.87037 -3.42391,-40.37776 0.50623,-12.17572 1.35833,-24.43094 3.99874,-36.35213 1.24235,-4.66123 6.12282,-7.3567 10.75724,-7.00589 1.65,-11.80624 14.99828,-19.92206 26.23999,-16.01002 1.66105,0.52394 3.24813,1.27784 4.70971,2.22452 z"
         style="fill:#28231d;fill-opacity:1;fill-rule:nonzero;stroke:none"
         id="path112" />
      <path
         d="m 414.0065,155.8382 c -0.0314,19.28855 0.0646,38.57992 -0.0516,57.8667 -1.95765,5.59833 -7.66024,-0.14158 -5.50429,-4.17471 0.11908,-18.24745 -0.13423,-36.51286 0.11979,-54.75029 0.72568,-3.42356 5.92131,-2.29091 5.436,1.0583"
         style="fill:#28231d;fill-opacity:1;fill-rule:nonzero;stroke:none"
         id="path114" />
      <path
         d="m 401.1259,155.6692 c -0.0233,19.41398 0.0311,38.75121 -0.0571,58.16265 -2.08612,5.35028 -7.35869,-0.14792 -5.45984,-3.99718 0.0444,-18.35171 -0.0876,-36.71276 0.0799,-55.05809 0.65296,-3.23753 5.79239,-2.47457 5.43716,0.89262"
         style="fill:#28231d;fill-opacity:1;fill-rule:nonzero;stroke:none"
         id="path116" />
      <path
         d="m 388.501,155.6692 c -0.0247,19.4131 0.0315,38.75214 -0.0571,58.16265 -2.08607,5.35028 -7.3587,-0.14795 -5.45985,-3.99718 0.0446,-18.35171 -0.0879,-36.71276 0.0799,-55.05809 0.65298,-3.2375 5.79241,-2.47462 5.43716,0.89262"
         style="fill:#28231d;fill-opacity:1;fill-rule:nonzero;stroke:none"
         id="path118" />
    </g>
  </g>
</svg>
