<?xml version="1.0" encoding="UTF-8" standalone="no"?>
<svg
   xmlns:dc="http://purl.org/dc/elements/1.1/"
   xmlns:cc="http://creativecommons.org/ns#"
   xmlns:rdf="http://www.w3.org/1999/02/22-rdf-syntax-ns#"
   xmlns:svg="http://www.w3.org/2000/svg"
   xmlns="http://www.w3.org/2000/svg"
   xmlns:sodipodi="http://sodipodi.sourceforge.net/DTD/sodipodi-0.dtd"
   xmlns:inkscape="http://www.inkscape.org/namespaces/inkscape"
   sodipodi:docname="wash_inkscape.svg"
   inkscape:version="1.0 (4035a4f, 2020-05-01)"
   id="svg1079"
   version="1.1"
   viewBox="0 0 47.302246 48.726368"
   height="48.726368mm"
   width="47.302246mm">
  <defs
     id="defs1073" />
  <sodipodi:namedview
     inkscape:window-maximized="0"
     inkscape:window-y="23"
     inkscape:window-x="0"
     inkscape:window-height="1174"
     inkscape:window-width="1252"
     fit-margin-bottom="0"
     fit-margin-right="0"
     fit-margin-left="0"
     fit-margin-top="0"
     showgrid="false"
     inkscape:document-rotation="0"
     inkscape:current-layer="layer1"
     inkscape:document-units="mm"
     inkscape:cy="-313.63297"
     inkscape:cx="-1253.4671"
     inkscape:zoom="0.35"
     inkscape:pageshadow="2"
     inkscape:pageopacity="0.0"
     borderopacity="1.0"
     bordercolor="#666666"
     pagecolor="#ffffff"
     id="base" />
  <metadata
     id="metadata1076">
    <rdf:RDF>
      <cc:Work
         rdf:about="">
        <dc:format>image/svg+xml</dc:format>
        <dc:type
           rdf:resource="http://purl.org/dc/dcmitype/StillImage" />
        <dc:title></dc:title>
      </cc:Work>
    </rdf:RDF>
  </metadata>
  <g
     transform="translate(-437.47983,-231.14872)"
     id="layer1"
     inkscape:groupmode="layer"
     inkscape:label="Layer 1">
    <g
       transform="matrix(0,-0.35277777,-0.35277777,0,612.36933,399.26553)"
       id="g1054">
      <path
         id="path90"
         style="fill:#28231d;fill-opacity:1;fill-rule:nonzero;stroke:none"
         d="m 374.6827,373.5156 c -3.4352,2.7579 -6.6313,5.816 -9.9295,8.743 -1.65,1.4644 -3.3254,2.9036 -4.9268,4.4205 -4.1329,3.9143 -8.6983,6.6041 -14.7067,5.4808 -0.5044,-0.0943 -1.0417,-0.0127 -1.7492,-0.0127 v 19.5626 c 8.3455,0 16.6347,0.4704 24.8412,-0.1448 6.9171,-0.5189 12.2783,-4.6625 15.5648,-10.7244 3.7743,-6.9627 9.1443,-12.0664 15.9603,-15.8417 0.6996,-0.3877 1.3595,-0.8522 2.0115,-1.3187 2.4838,-1.7744 2.9726,-4.3544 1.3411,-6.9831 -1.1749,-1.891 -2.9552,-2.5557 -4.9842,-1.6452 -1.1419,0.5112 -2.1982,1.2653 -3.1991,2.032 -7.1055,5.4399 -14.1868,10.911 -21.2748,16.3733 -0.2643,0.2031 -0.5141,0.4285 -0.7881,0.619 -1.2653,0.8794 -2.5431,0.9708 -3.5635,-0.2896 -1.0427,-1.2876 -0.652,-2.5314 0.5627,-3.4925 2.4109,-1.9076 4.8627,-3.7637 7.2979,-5.6411 5.0746,-3.9143 10.1355,-7.848 15.2363,-11.7273 1.1088,-0.8444 2.2973,-1.6413 3.5606,-2.2137 4.3515,-1.9736 8.638,-0.7191 11.1442,3.34 0.7084,1.1447 1.4625,1.5091 2.716,1.48 4.0095,-0.0952 8.0356,0.0758 12.0237,-0.2468 1.412,-0.1137 2.9765,-1.104 4.0377,-2.1389 1.4625,-1.4265 1.0213,-2.4488 -1.0233,-2.7958 -5.5303,-0.9397 -11.0684,-1.8512 -16.6201,-2.6587 -3.1709,-0.4606 -6.3796,-0.6608 -9.5641,-1.0388 -8.9538,-1.0622 -16.9719,1.2458 -23.9686,6.8626 m 20.3012,-11.8371 c 10.7292,0.2896 21.2505,2.2059 31.7582,4.1378 4.1368,0.7599 5.9054,4.6965 4.0853,8.5214 -1.6714,3.5139 -4.4827,5.6897 -8.4534,5.8248 -4.4021,0.1496 -8.8129,0.034 -13.526,0.034 -0.1642,4.1018 -2.4304,6.4136 -5.4312,8.2075 -0.7443,0.4451 -1.445,0.9669 -2.203,1.3877 -5.5691,3.0921 -9.8323,7.3543 -12.9536,13.0041 -3.4624,6.2679 -8.6176,10.877 -15.7056,12.7894 -2.8152,0.759 -5.7684,1.3498 -8.6682,1.3877 -7.6138,0.1011 -15.2334,-0.1448 -22.851,-0.2497 -1.7356,-0.0243 -2.5801,-0.9436 -2.582,-2.6316 -0.0127,-8.0219 -0.0117,-16.0428 -0.002,-24.0648 0.002,-1.8006 0.9349,-2.6947 2.7433,-2.6888 2.5402,0.009 5.0911,0.138 7.6167,-0.0545 1.31,-0.1 2.8055,-0.4781 3.8171,-1.2526 3.1787,-2.4323 6.1795,-5.0988 9.2279,-7.6993 3.8608,-3.2933 7.5312,-6.8383 11.5902,-9.8643 6.333,-4.7209 13.5668,-7.0035 21.5373,-6.7888" />
      <path
         id="path92"
         style="fill:#28231d;fill-opacity:1;fill-rule:nonzero;stroke:none"
         d="m 350.6463,445.401 c -2.3886,-0.0165 -4.7772,-0.003 -7.2639,-0.003 v 19.8668 c 2.235,0 4.4934,-0.1477 6.7207,0.0534 1.3896,0.1254 3.0154,0.4237 4.0484,1.2507 4.7947,3.8384 9.5252,7.7731 14.077,11.8944 5.4448,4.9307 11.0149,9.6671 18.307,11.4892 3.1233,0.7803 6.5138,1.2662 9.6837,0.9367 9.43,-0.9795 18.8133,-2.4119 28.2064,-3.7335 0.7677,-0.1079 1.9338,-0.6015 2.0728,-1.135 0.1632,-0.6249 -0.4013,-1.7599 -0.999,-2.1933 -1.0816,-0.7852 -2.3954,-1.6364 -3.6587,-1.7142 -4.1329,-0.2536 -8.2862,-0.205 -12.4318,-0.1827 -0.6238,0.003 -1.5655,0.3091 -1.8211,0.7726 -3.1203,5.6654 -9.1812,6.4953 -14.8689,2.0873 -6.817,-5.2825 -13.6494,-10.5465 -20.4741,-15.8193 -0.794,-0.6132 -1.5947,-1.2176 -2.3702,-1.8532 -1.1962,-0.9795 -1.6413,-2.1826 -0.6219,-3.4896 0.999,-1.2808 2.3138,-1.2672 3.546,-0.3323 2.9298,2.2195 5.8111,4.5041 8.7245,6.746 5.0318,3.8715 10.0208,7.8003 15.1323,11.564 2.5499,1.8784 4.8054,1.4994 6.2922,-0.6715 1.7783,-2.5956 1.3556,-5.4409 -1.1428,-7.1717 -1.7016,-1.1777 -3.4362,-2.3196 -5.2233,-3.3613 -5.4788,-3.1922 -9.3551,-7.7974 -12.4298,-13.285 -3.7228,-6.6449 -9.4475,-10.8002 -17.0895,-11.4892 -5.4341,-0.4907 -10.9411,-0.1875 -16.416,-0.2264 m 35.3829,5.9171 c 1.7201,2.3672 3.0961,4.9813 4.7355,7.4107 3.0921,4.5809 7.7663,7.2717 12.3355,10.0529 3.0932,1.8833 5.5887,4.1465 5.7403,8.2133 2.3526,0 4.5459,-0.0291 6.7391,0.009 2.2069,0.0379 4.4119,0.1341 6.6178,0.2186 3.4857,0.1351 6.1094,1.8172 7.984,4.6587 2.8949,4.3894 1.0981,9.0121 -4.0737,9.8371 -9.2337,1.4732 -18.4965,2.8259 -27.7895,3.8346 -3.6655,0.3975 -7.5341,0.1798 -11.1569,-0.5335 -8.1696,-1.6092 -14.8087,-6.1716 -20.855,-11.7573 -4.4643,-4.1242 -9.1006,-8.0696 -13.7845,-11.945 -0.9232,-0.7628 -2.3925,-1.0971 -3.6422,-1.1855 -2.5285,-0.1788 -5.0794,-0.0282 -7.6215,-0.0632 -1.9805,-0.0272 -2.7725,-0.8114 -2.8055,-2.8133 -0.0437,-2.6072 -0.0117,-5.2174 -0.0117,-7.8256 10e-4,-5.2844 0.007,-10.5689 -9e-4,-15.8534 -0.002,-1.617 0.5694,-2.8249 2.3526,-2.856 7.9568,-0.138 15.9214,-0.4927 23.8675,-0.2439 8.6866,0.2721 16.1148,3.6091 21.3691,10.842" />
      <path
         id="path94"
         style="fill:#28231d;fill-opacity:1;fill-rule:nonzero;stroke:none"
         d="m 437.4788,459.9547 31.2899,-31.2899 c 0.3168,-0.3168 0.4917,-0.7385 0.4917,-1.1865 0,-0.449 -0.1749,-0.8707 -0.4917,-1.1875 l -30.3521,-30.3521 c -0.654,-0.654 -1.72,-0.655 -2.374,0 l -31.2899,31.2898 c -0.3168,0.3178 -0.4917,0.7386 -0.4917,1.1875 0,0.448 0.1749,0.8698 0.4917,1.1875 l 30.3521,30.3512 c 0.3168,0.3167 0.7386,0.4917 1.1866,0.4917 0.4489,0 0.8707,-0.175 1.1874,-0.4917 m -1.1874,5.0619 c -1.6695,0 -3.2389,-0.6501 -4.4187,-1.8299 l -30.3521,-30.3521 c -1.1797,-1.1807 -1.8298,-2.7491 -1.8298,-4.4186 0,-1.6695 0.6501,-3.2389 1.8298,-4.4186 l 31.2899,-31.2898 c 2.4372,-2.4372 6.401,-2.4372 8.8382,0 l 30.3511,30.3511 c 1.1807,1.1807 1.8308,2.7501 1.8308,4.4196 0,1.6685 -0.6501,3.2379 -1.8308,4.4186 l -31.2889,31.2898 c -1.1807,1.1798 -2.7501,1.8299 -4.4195,1.8299" />
      <path
         id="path96"
         style="fill:#28231d;fill-opacity:1;fill-rule:nonzero;stroke:none"
         d="m 417.6306,391.6232 c 0.4189,-0.4665 1.0253,-0.7619 1.7026,-0.7619 1.2642,0 2.2895,1.0252 2.2895,2.2895 0,0.7191 -0.3324,1.3604 -0.8513,1.7802 l -31.2267,31.2267 c -0.6608,0.6608 -1.0242,1.5393 -1.0242,2.4732 0,0.9348 0.3634,1.8123 1.0232,2.4731 0,0 30.0985,30.1403 30.0839,30.1471 0.2527,0.3683 0.4004,0.8134 0.4004,1.2934 0,1.2643 -1.0242,2.2895 -2.2895,2.2895 -0.7201,0 -1.3624,-0.3343 -1.7822,-0.8542 l -29.6437,-29.6437 c -1.5237,-1.5237 -2.3624,-3.5498 -2.3624,-5.7052 0,-2.1544 0.8387,-4.1806 2.3624,-5.7043 l 31.3093,-31.3093 c 0.003,0.002 0.006,0.004 0.009,0.006" />
      <path
         id="path98"
         style="fill:#28231d;fill-opacity:1;fill-rule:nonzero;stroke:none"
         d="m 470.1338,407.9398 c -0.5986,-0.5986 -1.308,-1.0408 -2.1067,-1.3119 l -2.5762,-0.8746 1.1807,-2.4508 c 1.1117,-2.307 0.6423,-5.0736 -1.169,-6.8849 -1.6579,-1.6579 -4.1543,-2.205 -6.3583,-1.3916 l -1.6335,0.6025 -1.0835,-1.3624 c -0.1915,-0.241 -0.381,-0.4538 -0.5782,-0.6511 -2.4955,-2.4965 -6.2407,-2.8317 -8.5078,-0.827 l -3.4129,-3.4128 c 4.0902,-3.8424 10.7808,-3.5538 15.1644,0.6754 3.5217,-0.7056 7.2319,0.378 9.8158,2.9619 2.6772,2.6772 3.7238,6.5157 2.9017,10.1015 0.6355,0.4033 1.2264,0.8775 1.7696,1.4197 3.9862,3.9862 4.0085,10.4718 0.1078,14.6008 l -3.4108,-3.4109 c 2.0251,-2.2477 2.0057,-5.6751 -0.1031,-7.7838" />
      <path
         id="path100"
         style="fill:#28231d;fill-opacity:1;fill-rule:nonzero;stroke:none"
         d="m 449.6965,376.8974 c 0,-2.134 -1.9756,-3.8695 -4.405,-3.8695 -2.4285,0 -4.4051,1.7355 -4.4051,3.8695 0,2.134 1.9766,3.8696 4.4051,3.8696 2.4294,0 4.405,-1.7356 4.405,-3.8696 m -13.1111,0 c 0,-4.5061 3.9055,-8.1716 8.7061,-8.1716 4.8005,0 8.707,3.6655 8.707,8.1716 0,4.5061 -3.9065,8.1716 -8.707,8.1716 -4.8006,0 -8.7061,-3.6655 -8.7061,-8.1716" />
      <path
         id="path102"
         style="fill:#28231d;fill-opacity:1;fill-rule:nonzero;stroke:none"
         d="m 449.2958,480.7068 c 0,-2.134 -1.9756,-3.8696 -4.405,-3.8696 -2.4284,0 -4.405,1.7356 -4.405,3.8696 0,2.134 1.9766,3.8696 4.405,3.8696 2.4294,0 4.405,-1.7356 4.405,-3.8696 m -13.112,0 c 0,-4.5061 3.9065,-8.1716 8.707,-8.1716 4.8005,0 8.707,3.6655 8.707,8.1716 0,4.5061 -3.9065,8.1716 -8.707,8.1716 -4.8005,0 -8.707,-3.6655 -8.707,-8.1716" />
      <path
         id="path104"
         style="fill:#28231d;fill-opacity:1;fill-rule:nonzero;stroke:none"
         d="m 445.4169,464.3033 3.6412,-3.6412 c 0.4422,1.2759 1.172,2.4741 2.1894,3.4916 3.5984,3.5994 9.4553,3.5994 13.0547,0 2.7306,-2.7307 3.4731,-6.9171 1.8473,-10.4174 l -1.1855,-2.5528 2.7063,-0.7764 c 0.8581,-0.2459 1.6034,-0.6812 2.2147,-1.2935 2.2156,-2.2156 1.9697,-6.0842 -0.4888,-8.7896 l 3.4118,-3.4118 c 4.3254,4.5964 4.5712,11.5193 0.483,15.6075 -0.5792,0.5782 -1.2312,1.0825 -1.9377,1.5014 1.2584,4.7713 -0.0787,9.9712 -3.6451,13.5386 -5.4778,5.4769 -14.3899,5.4769 -19.8667,0 -0.9874,-0.9873 -1.7929,-2.0864 -2.4246,-3.2564" />
    </g>
  </g>
</svg>
